<?xml version="1.0" encoding="UTF-8"?>
<svg width="14px" height="4px" viewBox="0 0 14 4" version="1.1" xmlns="http://www.w3.org/2000/svg" xmlns:xlink="http://www.w3.org/1999/xlink">
    <!-- Generator: Sketch 59.1 (86144) - https://sketch.com -->
    <title>…</title>
    <desc>Created with Sketch.</desc>
    <g id="Page-1" stroke="none" stroke-width="1" fill="none" fill-rule="evenodd">
        <g id="Artboard" transform="translate(-14.000000, -27.000000)" fill="#095797" fill-rule="nonzero">
            <path d="M14.7070312,28.8632812 C14.7070312,28.4882794 14.8183583,28.1757825 15.0410156,27.9257812 C15.263673,27.67578 15.597654,27.5507812 16.0429688,27.5507812 C16.4882835,27.5507812 16.8261707,27.67578 17.0566406,27.9257812 C17.2871105,28.1757825 17.4023438,28.4882794 17.4023438,28.8632812 C17.4023438,29.222658 17.2871105,29.5234363 17.0566406,29.765625 C16.8261707,30.0078137 16.4882835,30.1289062 16.0429688,30.1289062 C15.597654,30.1289062 15.263673,30.0078137 15.0410156,29.765625 C14.8183583,29.5234363 14.7070312,29.222658 14.7070312,28.8632812 Z M19.828125,28.8632812 C19.828125,28.4882794 19.939452,28.1757825 20.1621094,27.9257812 C20.3847667,27.67578 20.7187478,27.5507812 21.1640625,27.5507812 C21.6093772,27.5507812 21.9472645,27.67578 22.1777344,27.9257812 C22.4082043,28.1757825 22.5234375,28.4882794 22.5234375,28.8632812 C22.5234375,29.222658 22.4082043,29.5234363 22.1777344,29.765625 C21.9472645,30.0078137 21.6093772,30.1289062 21.1640625,30.1289062 C20.7187478,30.1289062 20.3847667,30.0078137 20.1621094,29.765625 C19.939452,29.5234363 19.828125,29.222658 19.828125,28.8632812 Z M24.6914062,28.8632812 C24.6914062,28.4882794 24.8027333,28.1757825 25.0253906,27.9257812 C25.248048,27.67578 25.582029,27.5507812 26.0273438,27.5507812 C26.4726585,27.5507812 26.8105457,27.67578 27.0410156,27.9257812 C27.2714855,28.1757825 27.3867188,28.4882794 27.3867188,28.8632812 C27.3867188,29.222658 27.2714855,29.5234363 27.0410156,29.765625 C26.8105457,30.0078137 26.4726585,30.1289062 26.0273438,30.1289062 C25.582029,30.1289062 25.248048,30.0078137 25.0253906,29.765625 C24.8027333,29.5234363 24.6914062,29.222658 24.6914062,28.8632812 Z" id="…"></path>
        </g>
    </g>
</svg>